<?xml version="1.0"?>
<svg width="100%"   height="100%" viewBox="0 0 17 17" xmlns="http://www.w3.org/2000/svg">

 <g>
  <title>Layer 1</title>
  <g transform="rotate(-66.8 9.536999702453617,9.437499046325685) " stroke="null" id="svg_1">
   <path stroke="null" id="svg_2" fill="#010002" d="m17.483,4.592999c0.216,0.474 -1.670001,1.794001 -4.213,2.947c-0.163,0.072 -0.345,0.155001 -0.541,0.241l-2.432,8.406001l-0.684,0.307999l0.288,-7.545c-1.933,0.769 -4.08,1.561 -5.396,1.937l-0.388,3.165l-0.192,0.091l-0.257,-3.058c-0.237,0.037 -0.381,0.034 -0.407,-0.028c-0.028,-0.061 0.062,-0.172 0.245,-0.324l-2.131,-2.202999l0.196,-0.09l2.637,1.792c1.15,-0.744 3.159,-1.84 5.012,-2.796l-5.877,-4.744l0.679,-0.312l7.931,3.695c0.195,-0.092 0.376,-0.175 0.538,-0.249c2.543,-1.156 4.778,-1.706 4.992001,-1.233z"/>
  </g>
 </g>
</svg>